PathFileType  4	(X/Y/Z) C:\Users\antoi\Documents\MyRepositories\mobilecap\ResultsAnalysis
DataRate	CameraRate	NumFrames	NumMarkers	Units	OrigDataRate	OrigDataStartFrame	OrigNumFrames
100.0	100.0	6	51	mm	100.0	39	154
Frame#	Time	r_knee			r_shank_antsup			r_ankle			r_calc			r_5meta			r_toe			L_knee			L_shank_antsup			L_ankle			L_calc			L_5meta			L_toe			r_sh2			r_sh3			r_sh4			L_sh2			L_sh3			r_thigh1			r_thigh2			r_thigh3			r_thigh4			r_thigh5			L_thigh1			L_thigh2			L_thigh3			L_thigh4			r.ASIS			r.PSIS			L.ASIS			L.PSIS			C7			R_Shoulder			L_Shoulder			R_Sternum			L_Sternum			R_humerus			R_elbow_med			R_elbow_lat			R_forearm			R_wrist_radius			R_wrist_ulna			L_humerus			L_elbow_med			L_elbow_lat			L_forearm			L_wrist_radius			L_wrist_ulna			R_HJC			L_HJC			R_HJC_reg			L_HJC_reg			
		X1	Y1	Z1	X2	Y2	Z2	X3	Y3	Z3	X4	Y4	Z4	X5	Y5	Z5	X6	Y6	Z6	X7	Y7	Z7	X8	Y8	Z8	X9	Y9	Z9	X10	Y10	Z10	X11	Y11	Z11	X12	Y12	Z12	X13	Y13	Z13	X14	Y14	Z14	X15	Y15	Z15	X16	Y16	Z16	X17	Y17	Z17	X18	Y18	Z18	X19	Y19	Z19	X20	Y20	Z20	X21	Y21	Z21	X22	Y22	Z22	X23	Y23	Z23	X24	Y24	Z24	X25	Y25	Z25	X26	Y26	Z26	X27	Y27	Z27	X28	Y28	Z28	X29	Y29	Z29	X30	Y30	Z30	X31	Y31	Z31	X32	Y32	Z32	X33	Y33	Z33	X34	Y34	Z34	X35	Y35	Z35	X36	Y36	Z36	X37	Y37	Z37	X38	Y38	Z38	X39	Y39	Z39	X40	Y40	Z40	X41	Y41	Z41	X42	Y42	Z42	X43	Y43	Z43	X44	Y44	Z44	X45	Y45	Z45	X46	Y46	Z46	X47	Y47	Z47	X48	Y48	Z48	X49	Y49	Z49	X50	Y50	Z50	X51	Y51	Z51	

39	0.38000000	195.19488	469.90784	-130.01858	227.73676	406.36222	-143.37578	145.16700	86.26110	-164.59831	89.93726	57.75035	-204.44743	252.58291	44.24909	-138.42478	295.34798	61.28997	-193.33439	381.03478	505.19852	-401.17289	395.93114	412.43819	-388.09716	216.23618	161.53502	-370.37639	152.87973	144.75540	-319.26544	294.36829	76.09619	-400.33590	350.87442	84.66723	-352.38178	209.69405	295.66170	-139.26289	162.14080	417.83280	-102.79817	134.31207	304.57108	-103.26137	327.38952	458.19134	-424.78981	269.46435	349.59337	-423.94548	260.47621	712.19659	-77.12801	255.64149	600.26510	-102.28392	190.72811	580.19516	-93.03662	147.00628	713.70204	-69.25616	138.87797	603.22626	-107.95655	289.71769	765.75909	-438.05925	361.72959	646.96247	-423.59837	193.03659	709.87676	-432.26293	262.26767	596.23070	-394.25480	294.10425	923.33041	-139.18799	76.01625	960.11163	-203.48318	278.15089	924.55317	-359.37286	74.08843	956.05612	-285.41736	176.15185	1396.43519	-203.26474	250.86727	1344.83387	-69.96522	206.31956	1379.42775	-350.55124	302.53458	1328.29691	-202.62288	296.96694	1332.07632	-241.43441	296.07955	1230.54896	-27.74972	231.31619	1015.74259	-22.58345	278.97976	1029.21592	21.35483	356.49812	974.95391	10.02905	431.77465	852.44438	-17.58514	408.47982	838.85695	13.08006	200.71161	1292.36737	-437.08936	153.74294	1073.34257	-464.65590	167.79131	1108.71661	-518.28018	234.18485	1036.75630	-566.24588	286.49400	923.72517	-598.85194	252.06854	917.53370	-619.31546	205.95345	839.01267	-141.54587	195.72593	840.58069	-348.79504	213.83605	863.31439	-164.30905	210.41630	856.11453	-309.79473	
40	0.39000000	197.04549	469.99845	-129.68753	228.92852	406.24725	-142.89324	145.39120	86.41681	-164.72010	89.86355	58.21771	-204.60349	252.71717	44.10240	-138.37220	295.52288	60.92507	-193.14654	396.55010	507.03956	-399.95466	415.53422	415.14827	-387.32247	251.25236	153.48318	-372.05893	188.84650	132.31539	-321.52113	334.94186	73.57460	-402.24778	390.67149	85.38796	-353.85529	210.46793	295.60099	-138.92344	163.25623	418.07476	-102.60013	134.94991	304.91767	-103.26579	344.70404	456.87478	-424.17355	293.30102	345.22193	-424.29645	266.61220	711.36550	-77.10756	259.97151	599.55631	-102.28836	194.66366	580.56541	-93.09558	153.22509	714.71136	-69.13617	143.25899	604.44089	-107.86104	302.53079	766.61176	-437.75235	375.54115	648.55309	-422.43597	206.35305	709.77418	-432.75020	276.36266	596.94296	-394.11348	302.97619	922.51057	-138.57584	85.71653	959.86329	-205.10519	289.19178	924.19155	-358.89244	84.60289	955.80708	-287.07476	186.17217	1396.14949	-203.83294	260.40799	1344.75911	-70.13189	217.01348	1378.76913	-350.99681	312.37799	1327.81062	-202.45044	307.08277	1331.56315	-241.27791	306.46530	1230.78445	-28.17992	244.32059	1015.13200	-23.23990	291.56645	1029.26773	20.73873	370.37263	976.46221	8.50256	446.85006	854.98338	-19.95617	423.87081	840.94881	10.79717	211.76379	1291.62352	-437.39516	166.08344	1072.47903	-465.48883	179.94517	1108.07999	-519.00974	247.12603	1036.56928	-566.81825	300.19093	923.95236	-599.49239	265.96678	917.68948	-620.12398	214.71852	838.37431	-142.00480	206.63392	840.30340	-349.34908	222.80957	862.92318	-164.49626	220.83566	855.72350	-310.00134	
41	0.40000000	198.99673	470.12537	-129.36598	230.12454	406.17554	-142.22727	145.63187	86.59409	-164.84364	89.74505	58.75166	-204.78574	252.86860	43.93069	-138.30648	295.74755	60.50990	-192.93512	411.25041	508.23607	-398.58574	434.33309	417.50398	-386.40659	286.62797	145.75296	-373.70769	225.25537	120.39183	-323.99197	375.55653	71.78513	-403.90007	430.26511	86.89741	-354.94402	211.18437	295.60368	-138.40863	164.26137	418.39946	-102.45859	135.42407	305.35848	-103.35218	361.42320	455.01216	-423.52172	316.97892	340.61058	-424.67002	272.73164	710.49941	-77.01363	264.31526	598.84231	-102.20072	198.56684	580.98922	-93.14453	159.42509	715.61763	-68.99447	147.67859	605.62082	-107.77301	315.16657	767.00878	-437.37679	388.89493	649.55697	-421.11675	219.34336	709.46935	-433.19587	289.93347	597.26528	-393.93208	311.94649	921.64047	-138.09040	95.56988	959.55263	-206.63159	300.33551	923.69999	-358.47831	95.25314	955.47910	-288.60828	196.25987	1395.71436	-204.54745	269.90962	1344.57541	-70.37120	227.87048	1377.91152	-351.56072	322.32682	1327.16958	-202.32771	317.33262	1330.88860	-241.16234	316.70088	1230.90783	-28.59073	257.05543	1014.54163	-23.88158	303.95238	1029.24305	20.07548	383.86342	977.79103	7.03825	461.59709	857.38424	-22.22726	438.88798	842.93814	8.65905	222.97469	1290.64041	-437.77347	178.53124	1071.37849	-466.24891	192.22448	1107.14739	-519.70066	260.06931	1036.01462	-567.34759	313.80485	923.73152	-599.98885	279.80998	917.38563	-620.73719	223.66300	837.67985	-142.46016	217.59255	839.91893	-349.87267	231.91396	862.47092	-164.77560	231.35351	855.24183	-310.25873	
42	0.41000000	201.08840	470.29435	-129.05739	231.41247	406.14986	-141.44662	145.87908	86.80612	-164.96621	89.64652	59.31134	-204.99179	253.03348	43.74195	-138.23410	296.01753	60.07029	-192.71829	425.11936	508.76346	-397.08528	452.36127	419.49540	-385.31490	322.32110	138.46775	-375.32965	262.00891	109.14971	-326.67512	416.10635	70.77923	-405.17780	469.52559	89.24821	-355.53461	211.90820	295.67982	-137.76817	165.27741	418.80205	-102.38096	135.83554	305.89786	-103.50187	377.63948	452.61417	-422.89640	340.54877	335.80867	-425.11087	278.78537	709.62146	-76.81283	268.66293	598.14261	-101.99036	202.48245	581.44261	-93.17311	165.57806	716.43312	-68.90925	152.11914	606.74827	-107.74282	327.59161	766.94565	-436.95524	401.75255	649.95313	-419.67838	231.99037	708.95161	-433.60120	302.92812	597.16444	-393.69751	321.04270	920.73478	-137.70757	105.55672	959.15798	-208.06823	311.61790	923.09813	-358.10868	106.01944	955.02988	-290.02923	206.42211	1395.13885	-205.41361	279.37212	1344.29891	-70.69220	238.89359	1376.87269	-352.24978	332.39697	1326.41003	-202.25941	327.71407	1330.08552	-241.10249	326.78027	1230.94093	-28.98369	269.47223	1013.96649	-24.52079	316.10856	1029.14941	19.36783	396.92574	978.93329	5.66288	475.99170	859.64351	-24.36668	453.49411	844.81771	6.69419	234.36816	1289.43678	-438.23613	191.06505	1070.04621	-466.93436	204.61509	1105.92246	-520.36079	272.97172	1035.09522	-567.84302	327.30318	923.06067	-600.34661	293.53085	916.61808	-621.16057	232.80711	836.92870	-142.89978	228.64420	839.42319	-350.35830	241.17895	861.98774	-165.10859	242.00013	854.66354	-310.52815	
43	0.42000000	203.35567	470.50985	-128.76316	232.88642	406.16999	-140.64120	146.12193	87.06122	-165.09031	89.61049	59.86634	-205.22048	253.20569	43.54499	-138.16223	296.32138	59.63720	-192.51072	438.18320	508.60024	-395.50235	469.66563	421.11837	-384.01216	358.21376	131.79402	-376.92779	298.98342	98.74662	-329.54734	456.43618	70.62099	-405.99507	508.27244	92.45876	-355.55298	212.71655	295.82843	-137.07763	166.44082	419.27070	-102.36732	136.30646	306.53299	-103.69912	393.46409	449.70242	-422.35228	364.05033	330.88113	-425.65286	284.74559	708.75736	-76.49946	273.01259	597.47966	-101.64728	206.45583	581.89908	-93.17874	171.65743	717.17386	-68.94685	156.56414	607.81400	-107.80279	339.78921	766.41876	-436.49581	414.09239	649.72163	-418.16533	244.29195	708.21678	-433.96197	315.29322	596.60306	-393.40753	330.26622	919.79723	-137.39886	115.65359	958.65657	-209.43669	323.05661	922.38033	-357.76783	116.88589	954.42132	-291.36338	216.66520	1394.43034	-206.43499	288.80531	1343.94014	-71.10621	250.08265	1375.67040	-353.06967	342.58798	1325.56043	-202.24998	338.21332	1329.18006	-241.11312	336.70188	1230.90238	-29.37246	281.57456	1013.37914	-25.19389	328.01029	1028.99227	18.62042	409.56928	979.90469	4.38412	490.01109	861.75300	-26.34712	467.67395	846.57674	4.91125	245.95973	1288.03074	-438.79444	203.66411	1068.49301	-467.54506	217.10837	1104.41420	-520.99716	285.81646	1033.81798	-568.30002	340.66755	921.94252	-600.56058	307.06932	915.39565	-621.40779	242.14388	836.11531	-143.31245	239.81446	838.79647	-350.79896	250.60547	861.47954	-165.46478	252.79033	853.96730	-310.78573	
44	0.43000000	205.82798	470.77327	-128.48563	234.62544	406.23104	-139.89527	146.35405	87.36361	-165.22325	89.64275	60.40936	-205.47074	253.37386	43.35008	-138.09555	296.63991	59.23788	-192.32245	450.49425	507.73390	-393.89940	486.29039	422.38361	-382.47235	394.11257	125.92627	-378.50182	336.02387	89.32579	-332.57345	496.34120	71.39273	-406.30346	546.27722	96.52065	-354.96492	213.68257	296.03981	-136.41500	167.87048	419.79245	-102.41345	136.94628	307.25860	-103.94039	408.99774	446.33143	-421.92086	387.49048	325.92356	-426.31269	290.61308	707.92977	-76.09213	277.37648	596.87452	-101.18716	210.52002	582.34247	-93.17245	177.65527	717.85642	-69.14890	161.01135	608.82048	-107.96643	351.75918	765.42620	-435.99284	425.90820	648.84363	-416.62599	256.25224	707.26794	-434.27550	326.98892	595.55249	-393.07945	339.60252	918.82897	-137.13272	125.84309	958.03219	-210.76967	334.65165	921.52100	-357.43802	127.84679	953.63373	-292.64545	226.99720	1393.59367	-207.61295	298.22767	1343.50455	-71.62558	261.43878	1374.32089	-354.02413	352.88776	1324.63974	-202.30659	348.81312	1328.18898	-241.20645	346.47400	1230.80501	-29.77660	293.38853	1012.75408	-25.93777	339.64195	1028.77440	17.83883	421.82831	980.72602	3.20025	503.64061	863.70251	-28.14978	481.43536	848.20038	3.29491	257.75726	1286.43878	-439.45718	216.30959	1066.73669	-468.08275	229.70025	1102.63949	-521.61336	298.61181	1032.19467	-568.70372	353.89571	920.38653	-600.61683	320.39302	913.73658	-621.49024	251.64590	835.23857	-143.68425	251.11434	838.01118	-351.18363	260.17701	860.92872	-165.82292	263.72857	853.12905	-311.01862	
